<?xml version="1.0" encoding="UTF-8"?>
<svg xmlns="http://www.w3.org/2000/svg" xmlns:xlink="http://www.w3.org/1999/xlink" width="256" height="256" viewBox="0 0 256 256" role="img" aria-labelledby="title desc">
<title id="title">MeetSpace — иконка / white</title>
<desc id="desc">Векторная реконструкция по предоставленным референсам. Все надписи переведены в кривые. Растровые изображения и внешние зависимости отсутствуют.</desc>
<defs>
<linearGradient id="cyanHead" x1="0" y1="0" x2=".65" y2="1">
 <stop stop-color="#06DFFF"/><stop offset=".48" stop-color="#00B9F4"/><stop offset="1" stop-color="#0064FF"/>
</linearGradient>
<linearGradient id="purpleHead" x1=".85" y1="0" x2=".2" y2="1">
 <stop stop-color="#C34DFF"/><stop offset=".55" stop-color="#9140FF"/><stop offset="1" stop-color="#5E25FF"/>
</linearGradient>
<linearGradient id="backRibbon" x1="1" y1="0" x2=".1" y2="1">
 <stop stop-color="#CE55F4"/><stop offset=".38" stop-color="#9841FD"/><stop offset="1" stop-color="#413CFF"/>
</linearGradient>
<linearGradient id="frontRibbon" gradientUnits="userSpaceOnUse" x1="8" y1="84" x2="188" y2="204">
 <stop stop-color="#00D4F3"/><stop offset=".3" stop-color="#009EFE"/><stop offset=".62" stop-color="#2448FF"/><stop offset="1" stop-color="#7620FF"/>
</linearGradient>
<linearGradient id="leftFold" x1=".2" y1="1" x2=".8" y2="0">
 <stop stop-color="#00C2F6"/><stop offset=".48" stop-color="#0095FF"/><stop offset="1" stop-color="#0751FF"/>
</linearGradient>
<linearGradient id="play" x1=".3" y1="0" x2=".75" y2="1">
 <stop stop-color="#FFFFFF"/><stop offset=".48" stop-color="#F4FDFF"/><stop offset="1" stop-color="#BDD9FF"/>
</linearGradient>
<linearGradient id="whiteBack" x1=".7" y1="0" x2=".4" y2="1">
 <stop stop-color="#FFFFFF"/><stop offset="1" stop-color="#D2DCFF"/>
</linearGradient>
<linearGradient id="whiteFront" x1="0" y1="0" x2="1" y2="1">
 <stop stop-color="#FFFFFF"/><stop offset=".44" stop-color="#EBF6FF"/><stop offset="1" stop-color="#B1D8FF"/>
</linearGradient>
<linearGradient id="whiteFold" x1="0" y1="1" x2="1" y2="0">
 <stop stop-color="#FFFFFF"/><stop offset="1" stop-color="#B6DCFF"/>
</linearGradient>
<linearGradient id="wordSpace" x1="0" y1=".15" x2="1" y2=".85">
 <stop stop-color="#00B8F4"/><stop offset=".32" stop-color="#0071FF"/><stop offset=".63" stop-color="#4C35FF"/><stop offset="1" stop-color="#9515F5"/>
</linearGradient>
<linearGradient id="wordSpaceBright" x1="0" y1="0" x2="1" y2="1">
 <stop stop-color="#18D0FF"/><stop offset=".34" stop-color="#2B92FF"/><stop offset=".72" stop-color="#8866FF"/><stop offset="1" stop-color="#C279FF"/>
</linearGradient>
<linearGradient id="appWhite" x1="0" y1="0" x2="1" y2="1"><stop stop-color="#FFFFFF"/><stop offset="1" stop-color="#F3F6FF"/></linearGradient>
<linearGradient id="appDark" x1="0" y1="0" x2="1" y2="1"><stop stop-color="#15233F"/><stop offset="1" stop-color="#070C22"/></linearGradient>
<linearGradient id="appBlue" x1=".1" y1="0" x2=".9" y2="1"><stop stop-color="#00CFF8"/><stop offset=".42" stop-color="#008EFF"/><stop offset="1" stop-color="#0446FF"/></linearGradient>
<linearGradient id="appViolet" x1="0" y1="0" x2="1" y2="1"><stop stop-color="#AE70FF"/><stop offset=".4" stop-color="#8743FF"/><stop offset="1" stop-color="#5913EF"/></linearGradient>
<linearGradient id="appOutline" x1="0" y1="1" x2="1" y2="0"><stop stop-color="#008BFF"/><stop offset=".45" stop-color="#3C3CFF"/><stop offset="1" stop-color="#B02DFF"/></linearGradient>
<linearGradient id="darkBoard" x1="0" y1="0" x2="1" y2="1"><stop stop-color="#030914"/><stop offset=".6" stop-color="#09152D"/><stop offset="1" stop-color="#0B0922"/></linearGradient>
<linearGradient id="glassPanel" x1="0" y1="0" x2="1" y2="1"><stop stop-color="#203559" stop-opacity=".72"/><stop offset="1" stop-color="#172043" stop-opacity=".45"/></linearGradient>
<radialGradient id="glowCyan"><stop stop-color="#00BDFF" stop-opacity=".38"/><stop offset=".45" stop-color="#008CFF" stop-opacity=".13"/><stop offset="1" stop-color="#008CFF" stop-opacity="0"/></radialGradient>
<radialGradient id="glowPurple"><stop stop-color="#853EFF" stop-opacity=".36"/><stop offset=".45" stop-color="#7538FF" stop-opacity=".14"/><stop offset="1" stop-color="#7538FF" stop-opacity="0"/></radialGradient>
<radialGradient id="glowWhite"><stop stop-color="#FFFFFF" stop-opacity=".7"/><stop offset="1" stop-color="#FFFFFF" stop-opacity="0"/></radialGradient>
<g id="mark-color"><circle cx="52" cy="27" r="27" fill="url(#cyanHead)"/><circle cx="151" cy="27" r="27" fill="url(#purpleHead)"/><path fill="url(#backRibbon)" d="M103 85 129 69C140 61 149 58 160 59C184 60 200 76 200 100V172C200 195 186 210 166 210C153 210 143 205 130 196L49 141Z"/><path fill="url(#frontRibbon)" d="M42 59C54 59 63 63 77 73L180 147C193 156 200 165 200 178C200 197 186 210 166 210C153 210 141 204 128 194L65 149C53 141 44 142 33 151L0 179V101C0 78 17 59 42 59Z"/><path fill="url(#leftFold)" d="M0 172C0 160 5 151 15 143L38 125C47 118 55 118 64 124L105 154 64 190C51 202 41 208 28 208C11 208 0 193 0 172Z"/><path fill="url(#play)" d="M86.693 109.25C83.193 107.15 80.393 109.25 80.393 113.45V150.55C80.393 154.75 83.893 156.85 87.393 154.75L113.993 139.35C120.993 135.15 121.693 130.95 114.693 126.75L86.693 109.25Z"/></g><g id="mark-pearl"><circle cx="52" cy="27" r="27" fill="#FFF"/><circle cx="151" cy="27" r="27" fill="#FFF"/><path fill="url(#whiteBack)" d="M103 85 129 69C140 61 149 58 160 59C184 60 200 76 200 100V172C200 195 186 210 166 210C153 210 143 205 130 196L49 141Z"/><path fill="url(#whiteFront)" d="M42 59C54 59 63 63 77 73L180 147C193 156 200 165 200 178C200 197 186 210 166 210C153 210 141 204 128 194L65 149C53 141 44 142 33 151L0 179V101C0 78 17 59 42 59Z"/><path fill="url(#whiteFold)" d="M0 172C0 160 5 151 15 143L38 125C47 118 55 118 64 124L105 154 64 190C51 202 41 208 28 208C11 208 0 193 0 172Z"/><path fill="#FFFFFF" d="M86.693 109.25C83.193 107.15 80.393 109.25 80.393 113.45V150.55C80.393 154.75 83.893 156.85 87.393 154.75L113.993 139.35C120.993 135.15 121.693 130.95 114.693 126.75L86.693 109.25Z"/></g><g id="mark-white"><circle cx="52" cy="27" r="27" fill="#FFF"/><circle cx="151" cy="27" r="27" fill="#FFF"/><path fill="#FFF" fill-rule="evenodd" d="M42 59C55 59 64 65 77 73L102 91 129 69C140 61 149 58 160 59C184 60 200 76 200 100V172C200 195 186 210 166 210C152 210 140 204 127 194L101 175 64 190C51 202 41 208 28 208C11 208 0 193 0 172V101C0 78 17 59 42 59Z M86.693 109.25C83.193 107.15 80.393 109.25 80.393 113.45V150.55C80.393 154.75 83.893 156.85 87.393 154.75L113.993 139.35C120.993 135.15 121.693 130.95 114.693 126.75L86.693 109.25Z"/></g><g id="mark-navy"><circle cx="52" cy="27" r="27" fill="#111A34"/><circle cx="151" cy="27" r="27" fill="#111A34"/><path fill="#111A34" fill-rule="evenodd" d="M42 59C55 59 64 65 77 73L102 91 129 69C140 61 149 58 160 59C184 60 200 76 200 100V172C200 195 186 210 166 210C152 210 140 204 127 194L101 175 64 190C51 202 41 208 28 208C11 208 0 193 0 172V101C0 78 17 59 42 59Z M86.693 109.25C83.193 107.15 80.393 109.25 80.393 113.45V150.55C80.393 154.75 83.893 156.85 87.393 154.75L113.993 139.35C120.993 135.15 121.693 130.95 114.693 126.75L86.693 109.25Z"/></g></defs>
<g transform="translate(0 0) scale(1.0)"><rect x="1.5" y="1.5" width="253" height="253" rx="57" fill="url(#appWhite)" stroke="#E3E8F2" stroke-width="1" stroke-opacity="0.32"/><use href="#mark-color" xlink:href="#mark-color" transform="translate(40.0 35.599999999999994) scale(0.88)"/></g>
</svg>
